<mxfile host="Electron" agent="Mozilla/5.0 (Windows NT 10.0; Win64; x64) AppleWebKit/537.36 (KHTML, like Gecko) draw.io/24.7.17 Chrome/128.0.6613.36 Electron/32.0.1 Safari/537.36" version="24.7.17">
  <diagram id="C5RBs43oDa-KdzZeNtuy" name="Page-1">
    <mxGraphModel dx="1008" dy="592" grid="1" gridSize="10" guides="1" tooltips="1" connect="1" arrows="1" fold="1" page="1" pageScale="1" pageWidth="827" pageHeight="1169" math="0" shadow="0">
      <root>
        <mxCell id="WIyWlLk6GJQsqaUBKTNV-0" />
        <mxCell id="WIyWlLk6GJQsqaUBKTNV-1" parent="WIyWlLk6GJQsqaUBKTNV-0" />
        <mxCell id="_-1nD_xvz5fkDhOE4d9a-2" value="" style="edgeStyle=orthogonalEdgeStyle;rounded=0;orthogonalLoop=1;jettySize=auto;html=1;" edge="1" parent="WIyWlLk6GJQsqaUBKTNV-1" source="_-1nD_xvz5fkDhOE4d9a-0" target="_-1nD_xvz5fkDhOE4d9a-1">
          <mxGeometry relative="1" as="geometry" />
        </mxCell>
        <mxCell id="_-1nD_xvz5fkDhOE4d9a-0" value="factorialn" style="ellipse;whiteSpace=wrap;html=1;" vertex="1" parent="WIyWlLk6GJQsqaUBKTNV-1">
          <mxGeometry x="354" y="50" width="120" height="50" as="geometry" />
        </mxCell>
        <mxCell id="_-1nD_xvz5fkDhOE4d9a-4" value="" style="edgeStyle=orthogonalEdgeStyle;rounded=0;orthogonalLoop=1;jettySize=auto;html=1;" edge="1" parent="WIyWlLk6GJQsqaUBKTNV-1" source="_-1nD_xvz5fkDhOE4d9a-1" target="_-1nD_xvz5fkDhOE4d9a-3">
          <mxGeometry relative="1" as="geometry" />
        </mxCell>
        <mxCell id="_-1nD_xvz5fkDhOE4d9a-6" value="" style="edgeStyle=orthogonalEdgeStyle;rounded=0;orthogonalLoop=1;jettySize=auto;html=1;" edge="1" parent="WIyWlLk6GJQsqaUBKTNV-1" source="_-1nD_xvz5fkDhOE4d9a-1" target="_-1nD_xvz5fkDhOE4d9a-5">
          <mxGeometry relative="1" as="geometry" />
        </mxCell>
        <mxCell id="_-1nD_xvz5fkDhOE4d9a-1" value="if (n &amp;lt;= 1)" style="rhombus;whiteSpace=wrap;html=1;" vertex="1" parent="WIyWlLk6GJQsqaUBKTNV-1">
          <mxGeometry x="374" y="140" width="80" height="80" as="geometry" />
        </mxCell>
        <mxCell id="_-1nD_xvz5fkDhOE4d9a-9" style="edgeStyle=orthogonalEdgeStyle;rounded=0;orthogonalLoop=1;jettySize=auto;html=1;exitX=0.5;exitY=1;exitDx=0;exitDy=0;entryX=0.5;entryY=0;entryDx=0;entryDy=0;" edge="1" parent="WIyWlLk6GJQsqaUBKTNV-1" source="_-1nD_xvz5fkDhOE4d9a-3" target="_-1nD_xvz5fkDhOE4d9a-7">
          <mxGeometry relative="1" as="geometry" />
        </mxCell>
        <mxCell id="_-1nD_xvz5fkDhOE4d9a-3" value="return n * factorialn(n - 1)" style="whiteSpace=wrap;html=1;" vertex="1" parent="WIyWlLk6GJQsqaUBKTNV-1">
          <mxGeometry x="514" y="150" width="146" height="60" as="geometry" />
        </mxCell>
        <mxCell id="_-1nD_xvz5fkDhOE4d9a-8" value="" style="edgeStyle=orthogonalEdgeStyle;rounded=0;orthogonalLoop=1;jettySize=auto;html=1;" edge="1" parent="WIyWlLk6GJQsqaUBKTNV-1" source="_-1nD_xvz5fkDhOE4d9a-5" target="_-1nD_xvz5fkDhOE4d9a-7">
          <mxGeometry relative="1" as="geometry" />
        </mxCell>
        <mxCell id="_-1nD_xvz5fkDhOE4d9a-5" value="return 1" style="whiteSpace=wrap;html=1;" vertex="1" parent="WIyWlLk6GJQsqaUBKTNV-1">
          <mxGeometry x="354" y="270" width="120" height="60" as="geometry" />
        </mxCell>
        <mxCell id="_-1nD_xvz5fkDhOE4d9a-7" value="Finish" style="ellipse;whiteSpace=wrap;html=1;" vertex="1" parent="WIyWlLk6GJQsqaUBKTNV-1">
          <mxGeometry x="547" y="270" width="80" height="60" as="geometry" />
        </mxCell>
        <mxCell id="_-1nD_xvz5fkDhOE4d9a-10" value="-" style="text;html=1;align=center;verticalAlign=middle;whiteSpace=wrap;rounded=0;" vertex="1" parent="WIyWlLk6GJQsqaUBKTNV-1">
          <mxGeometry x="450" y="150" width="60" height="30" as="geometry" />
        </mxCell>
        <mxCell id="_-1nD_xvz5fkDhOE4d9a-11" value="+" style="text;html=1;align=center;verticalAlign=middle;whiteSpace=wrap;rounded=0;" vertex="1" parent="WIyWlLk6GJQsqaUBKTNV-1">
          <mxGeometry x="354" y="220" width="60" height="30" as="geometry" />
        </mxCell>
      </root>
    </mxGraphModel>
  </diagram>
</mxfile>
